<?xml version="1.0" standalone="no"?>
<!DOCTYPE svg PUBLIC "-//W3C//DTD SVG 20010904//EN"
 "http://www.w3.org/TR/2001/REC-SVG-20010904/DTD/svg10.dtd">
<svg version="1.0" xmlns="http://www.w3.org/2000/svg"
 width="490.000000pt" height="474.000000pt" viewBox="0 0 490.000000 474.000000"
 preserveAspectRatio="xMidYMid meet">

<g transform="translate(0.000000,474.000000) scale(0.100000,-0.100000)"
fill="#000000" stroke="none">
<path d="M1843 4364 c-37 -32 -333 -337 -505 -521 l-66 -72 -84 78 c-46 43
-93 83 -105 90 -44 23 -95 -7 -113 -67 -10 -38 5 -59 152 -210 105 -108 133
-127 180 -117 25 6 231 216 619 630 95 101 110 159 52 205 -39 30 -81 25 -130
-16z"/>
<path d="M854 4282 c-81 -8 -106 -24 -126 -81 -19 -52 -19 -830 0 -882 8 -24
27 -46 54 -64 l41 -27 438 3 c560 5 518 -18 525 287 3 103 2 222 -3 265 l-8
78 -72 -66 -73 -67 0 -167 0 -168 -61 -7 c-34 -3 -205 -6 -380 -6 l-319 0 0
375 0 375 293 0 292 1 64 60 c97 93 101 92 -281 95 -172 1 -345 -1 -384 -4z"/>
<path d="M2884 3910 c-647 -5 -623 -4 -661 -50 -22 -27 -16 -96 11 -127 l24
-28 169 -7 c92 -3 494 -6 893 -6 399 0 801 3 893 6 l169 7 24 28 c45 52 27
126 -41 164 -45 25 -39 25 -1481 13z"/>
<path d="M867 2881 c-77 -6 -90 -10 -114 -33 -24 -25 -27 -36 -34 -135 -4 -59
-8 -258 -8 -441 l-1 -332 26 -40 c18 -27 38 -43 63 -51 24 -7 187 -9 478 -7
l443 3 26 27 c25 25 27 34 36 170 5 78 8 284 6 455 l-3 313 -31 31 c-20 20
-47 34 -75 40 -49 9 -677 9 -812 0z m763 -521 l0 -370 -380 0 -380 0 0 370 0
370 380 0 380 0 0 -370z"/>
<path d="M2358 2481 c-89 -6 -100 -8 -125 -34 -54 -54 -26 -146 51 -169 58
-18 1188 -18 1228 0 66 28 88 123 40 171 -26 27 -32 28 -166 34 -161 8 -884 6
-1028 -2z"/>
<path d="M784 1476 c-63 -28 -64 -36 -64 -516 l0 -433 45 -44 44 -45 448 4
c410 3 450 5 474 21 53 35 54 47 54 507 0 380 -2 428 -17 456 -35 63 -39 64
-520 64 -339 -1 -440 -4 -464 -14z m846 -506 l0 -370 -380 0 -380 0 0 370 0
370 380 0 380 0 0 -370z"/>
<path d="M2275 1319 c-38 -11 -55 -34 -55 -77 0 -30 14 -48 117 -153 l117
-119 -45 -48 c-24 -26 -77 -82 -118 -124 -64 -66 -75 -82 -75 -112 0 -62 68
-111 117 -85 12 7 71 58 130 113 59 56 112 103 118 105 6 2 61 -47 123 -108
110 -108 114 -111 158 -111 53 0 76 20 85 73 5 34 1 39 -111 155 -64 65 -116
123 -116 127 0 4 51 60 114 125 118 122 132 147 110 198 -14 34 -69 58 -106
47 -13 -4 -61 -44 -108 -89 -47 -45 -100 -95 -117 -110 l-33 -29 -114 111
c-63 62 -119 112 -124 112 -6 0 -16 2 -24 4 -7 2 -26 0 -43 -5z"/>
</g>
</svg>
